<?xml version="1.0" encoding="UTF-8" standalone="no"?>
<svg width="43px" height="31px" viewBox="0 0 43 31" version="1.1" xmlns="http://www.w3.org/2000/svg" xmlns:xlink="http://www.w3.org/1999/xlink">
    <!-- Generator: Sketch 43.2 (39069) - http://www.bohemiancoding.com/sketch -->
    <title>icon-uk</title>
    <desc>Created with Sketch.</desc>
    <defs>
        <rect id="path-1" x="0" y="0" width="43" height="31" rx="3.1"></rect>
    </defs>
    <g id="IMAGES" stroke="none" stroke-width="1" fill="none" fill-rule="evenodd">
        <g id="icon-uk">
            <g id="GB">
                <mask id="mask-2" fill="white">
                    <use xlink:href="#path-1"></use>
                </mask>
                <use id="Mask" fill="#FFFFFF" xlink:href="#path-1"></use>
                <rect id="Mask-Copy" fill="#0A17A7" mask="url(#mask-2)" x="0" y="0" width="43" height="31"></rect>
                <path d="M10.1442989,20.6666667 L1.77635684e-15,20.6666667 L1.77635684e-15,10.3333333 L10.1442989,10.3333333 L-4.27018564,0.61064073 L-1.95885498,-2.8160479 L16.3809524,9.55430836 L16.3809524,-2.06666667 L26.6190476,-2.06666667 L26.6190476,9.55430836 L44.958855,-2.8160479 L47.2701856,0.61064073 L32.8557011,10.3333333 L43,10.3333333 L43,20.6666667 L32.8557011,20.6666667 L47.2701856,30.3893593 L44.958855,33.8160479 L26.6190476,21.4456916 L26.6190476,33.0666667 L16.3809524,33.0666667 L16.3809524,21.4456916 L-1.95885498,33.8160479 L-4.27018564,30.3893593 L10.1442989,20.6666667 Z" id="Rectangle-2" fill="#FFFFFF" mask="url(#mask-2)"></path>
                <path d="M28.6686663,9.81490072 L48.1190476,-3.1" id="Line" stroke="#DB1F35" stroke-width="1.03333333" stroke-linecap="round" mask="url(#mask-2)"></path>
                <path d="M30.7339071,33.0930298 L48.1701631,21.2311401" id="Line-Copy-2" stroke="#DB1F35" stroke-width="1.03333333" stroke-linecap="round" mask="url(#mask-2)" transform="translate(39.452035, 27.162085) scale(1, -1) translate(-39.452035, -27.162085) "></path>
                <path d="M12.2942127,9.78122152 L-5.89327858,-2.59001872" id="Line-Copy" stroke="#DB1F35" stroke-width="1.03333333" stroke-linecap="round" mask="url(#mask-2)"></path>
                <path d="M14.2668457,34.5812215 L-5.89327858,21.0875936" id="Line-Copy-3" stroke="#DB1F35" stroke-width="1.03333333" stroke-linecap="round" mask="url(#mask-2)" transform="translate(4.186784, 27.834408) scale(1, -1) translate(-4.186784, -27.834408) "></path>
                <polygon id="Rectangle-2-Copy-3" fill="#E6273E" mask="url(#mask-2)" points="0 18.6 18.4285714 18.6 18.4285714 31 24.5714286 31 24.5714286 18.6 43 18.6 43 12.4 24.5714286 12.4 24.5714286 0 18.4285714 0 18.4285714 12.4 0 12.4"></polygon>
            </g>
        </g>
    </g>
</svg>