<svg width="42" height="28" viewBox="0 0 42 28" xmlns="http://www.w3.org/2000/svg" xmlns:xlink="http://www.w3.org/1999/xlink"><title>cc_flag_credit</title><defs><path d="M42 3.589V24.41C42 26.393 40.486 28 38.62 28H3.38C1.513 28 0 26.393 0 24.41V3.59C0 1.606 1.513 0 3.38 0h35.24C40.486 0 42 1.606 42 3.589" id="a"/></defs><g fill="none" fill-rule="evenodd"><mask id="b" fill="#fff"><use xlink:href="#a"/></mask><use fill="#FFF" xlink:href="#a"/><g fill="#FF6000" mask="url(#b)"><path d="M20.916 5.168C16 5.168 12 9.168 12 14.084S16 23 20.916 23s8.916-4 8.916-8.916-4-8.916-8.916-8.916zm0 16.743c-4.316 0-7.827-3.511-7.827-7.827s3.511-7.827 7.827-7.827 7.827 3.511 7.827 7.827-3.511 7.827-7.827 7.827z"/><path d="M23.063 11.914s.987-.665 1.246-.685l.299.385.055.025.213-.113.146.06.584.786s.206.137.422-.167c0 0 .115-.12.117-.311l-2.52-3.324s-.29-.12-.381.208l-.046.381.525.709-.055.196-.077.02-.015.127.187.243s-.785.521-1.002.755l-1.106.947-.786.754-.692-.665-1.107-.947c-.216-.234-1-.755-1-.755l.185-.243-.015-.127-.076-.02-.055-.197.525-.708-.045-.381c-.091-.329-.383-.208-.383-.208l-2.519 3.324c.003.191.117.311.117.311.216.304.422.167.422.167l.584-.785.145-.06.215.112.054-.025.299-.385c.26.02 1.246.685 1.246.685.294.182.386.44.386.44.145.414.43.638.43.638l.557.527-4.01 3.846s-.497.338-.279.65c0 0 .3.456.948-.012l1.52-1.38 2.548-2.415 2.642 2.504 1.52 1.38c.647.468.948.012.948.012.217-.312-.28-.65-.28-.65l-4.102-3.936.649-.615s.585-.363.73-.777c0 0-.207-.12.087-.301"/></g></g></svg>