<svg width="42" height="28" viewBox="0 0 42 28" xmlns="http://www.w3.org/2000/svg" xmlns:xlink="http://www.w3.org/1999/xlink"><title>cc_flag_visa</title><defs><path d="M42 3.589V24.41C42 26.393 40.486 28 38.62 28H3.38C1.513 28 0 26.393 0 24.41V3.59C0 1.606 1.513 0 3.38 0h35.24C40.486 0 42 1.606 42 3.589" id="a"/></defs><g fill="none" fill-rule="evenodd"><path d="M41.95 3.516v20.4c0 1.942-1.511 3.517-3.375 3.517H3.376C1.511 27.433 0 25.858 0 23.916v-20.4C0 1.574 1.511 0 3.376 0h35.199c1.864 0 3.376 1.574 3.376 3.516" fill="#FFF"/><path d="M38.433 28H3.517C1.574 28 0 26.325 0 24.258V21h41.95v3.257c0 2.067-1.574 3.743-3.517 3.743" fill="#FCB331"/><path d="M41.95 6.852H0V3.663C0 1.64 1.574 0 3.517 0h34.916c1.943 0 3.518 1.64 3.518 3.663v3.19zM17.22 17.901l1.138-6.851h1.822L19.04 17.9zM25.646 11.219a4.593 4.593 0 0 0-1.632-.288c-1.8 0-3.068.93-3.078 2.261-.01.984.905 1.534 1.595 1.861.71.336.948.55.945.85-.005.46-.567.669-1.09.669-.73 0-1.117-.103-1.715-.36l-.235-.109-.255 1.534c.425.192 1.212.357 2.029.366 1.914 0 3.158-.918 3.171-2.34.008-.78-.477-1.374-1.529-1.862-.636-.317-1.026-.529-1.022-.85 0-.285.33-.59 1.043-.59a3.284 3.284 0 0 1 1.363.264l.163.079.247-1.485M28.071 15.472l.726-1.915c-.01.019.15-.396.241-.654l.123.59s.35 1.637.422 1.98h-1.512zm2.246-4.415H28.91c-.436 0-.762.122-.954.568l-2.705 6.278h1.912s.313-.844.384-1.029l2.333.003c.054.24.221 1.026.221 1.026h1.69l-1.474-6.846zM15.692 11.055l-1.784 4.672-.19-.95c-.331-1.094-1.366-2.28-2.522-2.873l1.63 5.992 1.928-.003 2.867-6.838h-1.93" fill="#0058A0"/><path d="M12.254 11.05H9.317l-.023.144c2.285.566 3.797 1.937 4.425 3.584l-.64-3.149c-.11-.434-.43-.563-.825-.578" fill="#FAA61A"/></g></svg>
