<?xml version="1.0" encoding="utf-8"?>
<svg width="15px" height="15px" version="1.1" id="Layer_1" xmlns="http://www.w3.org/2000/svg" xmlns:xlink="http://www.w3.org/1999/xlink" x="0px" y="0px"
	 viewBox="0 0 15 15" xml:space="preserve">
	 <title>calendar</title>
<path id="Shape" d="M4.445,2.027v-1.03h6.484V0.511c0-0.104,0.024-0.195,0.073-0.272c0.022-0.033,0.049-0.063,0.081-0.091
	C11.175,0.049,11.292,0,11.432,0c0.146,0,0.271,0.049,0.374,0.148c0.032,0.039,0.062,0.077,0.089,0.116
	c0.032,0.077,0.049,0.159,0.049,0.247v2.365c0,0.148-0.046,0.272-0.138,0.371c-0.103,0.093-0.227,0.14-0.374,0.14
	c-0.14,0-0.257-0.047-0.349-0.14c-0.103-0.099-0.154-0.223-0.154-0.371V2.027L4.445,2.027L4.445,2.027z M3.787,0.033
	c0.049,0.027,0.1,0.066,0.154,0.115c0.092,0.099,0.138,0.22,0.138,0.363v2.365c0,0.148-0.046,0.272-0.138,0.371
	c-0.103,0.093-0.227,0.14-0.373,0.14c-0.141,0-0.257-0.047-0.349-0.14C3.116,3.148,3.065,3.025,3.065,2.876V2.027H3.041
	c-1.012,0-1.518,0.514-1.518,1.541V4.83h11.963V3.569c0-0.907-0.395-1.412-1.185-1.516V1.014c1.466,0.105,2.2,0.956,2.2,2.555v8.86
	c0,1.714-0.844,2.572-2.532,2.572H3.041c-1.688,0-2.533-0.857-2.533-2.572V4.294c0-2.198,0.844-3.297,2.533-3.297h0.024V0.511
	c0-0.143,0.052-0.264,0.154-0.363C3.311,0.049,3.427,0,3.568,0C3.644,0,3.717,0.011,3.787,0.033z M12.196,7.014v1.343H10.88V7.014
	H12.196z M10.223,8.357H8.908V7.014h1.315V8.357z M10.223,10.582H8.908V9.247h1.315V10.582z M10.881,10.582V9.247h1.315v1.335
	H10.881z M12.196,11.332v1.343H10.88v-1.343H12.196z M13.486,12.428V5.86H1.523v6.569c0,1.028,0.506,1.542,1.518,1.542h8.927
	C12.98,13.97,13.486,13.456,13.486,12.428z M10.223,12.675H8.908v-1.343h1.315V12.675z M8.178,7.014v1.343H6.855V7.014H8.178z
	 M4.127,8.357H2.804V7.014h1.323V8.357z M6.173,7.014v1.343H4.858V7.014H6.173z M6.173,11.332v1.343H4.858v-1.343H6.173z
	 M4.127,10.582H2.804V9.247h1.323V10.582z M4.858,10.582V9.247h1.315v1.335H4.858z M8.178,9.247v1.335H6.855V9.247H8.178z
	 M8.178,11.332v1.343H6.855v-1.343H8.178z M2.804,12.675v-1.343h1.323v1.343H2.804z"/>
</svg>
