<?xml version="1.0" encoding="UTF-8" standalone="no"?>
<svg width="15px" height="15px" viewBox="0 0 15 15" version="1.1" xmlns="http://www.w3.org/2000/svg" xmlns:xlink="http://www.w3.org/1999/xlink">
    <title>close</title>
    <g id="Page-1" stroke="none" stroke-width="1" fill="none" fill-rule="evenodd">
        <g id="icon-x" fill="#000000">
            <path d="M8.50083767,7.49987378 L12.7924862,3.20822528 C13.0691713,2.93154017 13.0691713,2.48318913 12.7924862,2.20751383 C12.5158011,1.93082872 12.06745,1.93082872 11.7917747,2.20751383 L7.50012622,6.49916233 L3.20847773,2.20751383 C2.93179262,1.93082872 2.48344158,1.93082872 2.20675648,2.20751383 C1.93108117,2.48318913 1.93108117,2.93154017 2.20675648,3.20822528 L6.49840498,7.49987378 L2.20675648,11.7915223 C1.93108117,12.0682074 1.93108117,12.5165584 2.20675648,12.7922337 C2.48344158,13.0689188 2.93179262,13.0689188 3.20847773,12.7922337 L7.50012622,8.50058522 L11.7917747,12.7922337 C12.06745,13.0689188 12.5158011,13.0689188 12.7924862,12.7922337 C13.0691713,12.5165584 13.0691713,12.0682074 12.7924862,11.7915223 L8.50083767,7.49987378 Z" id="Fill-1"></path>
        </g>
    </g>
</svg>