<?xml version="1.0" encoding="UTF-8" standalone="no"?>
<svg width="15px" height="15px" viewBox="0 0 15 15" version="1.1" xmlns="http://www.w3.org/2000/svg" xmlns:xlink="http://www.w3.org/1999/xlink">
    <title>hamburger</title>
    <g id="Page-1" stroke="none" stroke-width="1" fill="none" fill-rule="evenodd">
        <g id="icon-hamburger" fill="#000000">
            <path d="M12.2726462,10.6885769 L2.46656923,10.6885769 C2.20933846,10.6885769 2.00033846,10.9348077 2.00033846,11.2377308 C2.00033846,11.5406538 2.20933846,11.7868846 2.46656923,11.7868846 L12.2726462,11.7868846 C12.5307231,11.7868846 12.7397231,11.5406538 12.7397231,11.2377308 C12.7397231,10.9348077 12.5307231,10.6885769 12.2726462,10.6885769" id="Fill-1"></path>
            <path d="M2.46690769,4.09839231 L12.2729846,4.09839231 C12.5302154,4.09839231 12.7392154,3.85300769 12.7392154,3.54923846 C12.7392154,3.24631538 12.5302154,3.00008462 12.2729846,3.00008462 L2.46690769,3.00008462 C2.20883077,3.00008462 1.99983077,3.24631538 1.99983077,3.54923846 C1.99983077,3.85300769 2.20883077,4.09839231 2.46690769,4.09839231" id="Fill-4"></path>
            <path d="M12.2726462,6.84424615 L2.46656923,6.84424615 C2.20933846,6.84424615 2.00033846,7.09047692 2.00033846,7.3934 C2.00033846,7.69716923 2.20933846,7.94255385 2.46656923,7.94255385 L12.2726462,7.94255385 C12.5307231,7.94255385 12.7397231,7.69716923 12.7397231,7.3934 C12.7397231,7.09047692 12.5307231,6.84424615 12.2726462,6.84424615" id="Fill-7"></path>
        </g>
    </g>
</svg>