<?xml version="1.0" encoding="UTF-8" standalone="no"?>
<svg width="15px" height="15px" viewBox="0 0 15 15" version="1.1" xmlns="http://www.w3.org/2000/svg" xmlns:xlink="http://www.w3.org/1999/xlink">
    <title>heart</title>
    <g id="Page-1" stroke="none" stroke-width="1" fill="none" fill-rule="evenodd">
        <g id="icon-heart" fill="#000000">
            <path d="M11.5446171,7.48571214 L7.55945597,11.6602755 C5.61058364,9.70626105 4.64728878,8.73953809 3.4860214,7.57484262 C2.66070739,6.74695754 2.64785204,5.39885895 3.45602557,4.55469042 C4.25819993,3.71566403 5.55744816,3.70195164 6.376763,4.52383756 L7.49432216,5.64482481 L8.59302679,4.49641279 C9.39520116,3.6573864 10.6953064,3.64367402 11.5146212,4.46555993 C12.3390782,5.29258799 12.3527906,6.63982955 11.5446171,7.48571214 M12.1222512,3.85964404 C10.9626979,2.69666262 9.10895517,2.71637417 7.97339851,3.90249524 L7.4814668,4.41670957 L6.98439294,3.91792167 C5.82483961,2.75494024 3.97109693,2.77465179 2.83554027,3.96077286 C1.70512575,5.14260881 1.72398028,7.02291923 2.87839146,8.17990149 C4.09965051,9.40544566 5.10236847,10.4115917 7.26206868,12.5772911 L7.57231133,12.8883908 L12.1651024,8.07877267 C13.2946599,6.8960797 13.2758053,5.0166263 12.1222512,3.85964404" id="Fill-1"></path>
        </g>
    </g>
</svg>