<?xml version="1.0" encoding="UTF-8" standalone="no"?>
<svg width="43px" height="31px" viewBox="0 0 43 31" version="1.1" xmlns="http://www.w3.org/2000/svg" xmlns:xlink="http://www.w3.org/1999/xlink">
    <!-- Generator: Sketch 43.2 (39069) - http://www.bohemiancoding.com/sketch -->
    <title>icon-aus</title>
    <desc>Created with Sketch.</desc>
    <defs>
        <rect id="path-1" x="0" y="0" width="43" height="31" rx="3.08000001"></rect>
        <path d="M7.16666667,6.2 L0,0 L1.02380952,0 L8.19047619,5.16666667 L10.2380952,5.16666667 L18.4285714,0 L18.4285714,0.516666667 C18.4285714,0.802013787 18.2368804,1.17152919 18.0122842,1.33344738 L11.2619048,6.2 L11.2619048,8.26666667 L18.0432603,14.1333277 C18.2560618,14.3174257 18.1911156,14.4666667 17.9166667,14.4666667 L17.9166667,14.4666667 C17.6339495,14.4666667 17.2130709,14.3284708 16.9884747,14.1665526 L10.2380952,9.3 L8.19047619,9.3 L0,14.4666667 L0,13.4333333 L7.16666667,8.26666667 L7.16666667,6.2 Z" id="path-3"></path>
        <linearGradient x1="50%" y1="0%" x2="50%" y2="100%" id="linearGradient-4">
            <stop stop-color="#FFFFFF" offset="0%"></stop>
            <stop stop-color="#F0F0F0" offset="100%"></stop>
        </linearGradient>
        <linearGradient x1="50%" y1="0%" x2="50%" y2="100%" id="linearGradient-5">
            <stop stop-color="#FF2E3A" offset="0%"></stop>
            <stop stop-color="#FC0D1B" offset="100%"></stop>
        </linearGradient>
    </defs>
    <g id="IMAGES" stroke="none" stroke-width="1" fill="none" fill-rule="evenodd">
        <g id="icon-aus">
            <g id="AU">
                <mask id="mask-2" fill="white">
                    <use xlink:href="#path-1"></use>
                </mask>
                <use id="Mask" fill="#FFFFFF" xlink:href="#path-1"></use>
                <rect id="Mask-Copy" fill="#0A17A7" mask="url(#mask-2)" x="0" y="0" width="43" height="31"></rect>
                <g id="Rectangle-36" mask="url(#mask-2)">
                    <use fill="#FF2E3B" fill-rule="evenodd" xlink:href="#path-3"></use>
                    <path stroke="#FFFFFF" stroke-width="1.02666667" d="M6.65333333,6.43467772 L6.65333333,8.00391839 L-0.300198143,13.0169295 L-0.513333336,13.1705851 L-0.513333336,13.4333333 L-0.513333336,14.4666667 L-0.513333336,15.3974187 L0.273878935,14.9008342 L8.33885726,9.81333334 L10.0723476,9.81333334 L16.6882765,14.5829565 C17.0018557,14.8090252 17.5280977,14.98 17.9166667,14.98 C18.6623588,14.98 18.9548168,14.2431593 18.3791141,13.7451096 L11.7752381,8.03198894 L11.7752381,6.46274827 L18.3124824,1.74985125 C18.6726671,1.49018321 18.9419048,0.964842631 18.9419048,0.516666667 L18.9419048,0 L18.9419048,-0.930752013 L18.1546925,-0.434167528 L10.0897142,4.65333333 L8.35622379,4.65333333 L1.32400767,-0.416403876 L1.18955713,-0.513333336 L1.02380952,-0.513333336 L0,-0.513333336 L-1.37796977,-0.513333336 L-0.335853828,0.388218134 L6.65333333,6.43467772 Z"></path>
                </g>
                <path d="M0,5.16666667 L0,9.3 L7.16666667,9.3 L7.16666667,14.4761961 C7.16666667,15.0416274 7.62057587,15.5 8.20006816,15.5 L10.2285033,15.5 C10.7992352,15.5 11.2619048,15.0339923 11.2619048,14.4761961 L11.2619048,9.3 L18.431612,9.3 C18.9953671,9.3 19.452381,8.84186838 19.452381,8.2782769 L19.452381,6.18838976 C19.452381,5.62410768 18.9885581,5.16666667 18.431612,5.16666667 L11.2619048,5.16666667 L11.2619048,0 L7.16666667,0 L7.16666667,5.16666667 L0,5.16666667 Z" id="Rectangle-2" fill="url(#linearGradient-4)" mask="url(#mask-2)"></path>
                <polygon id="Rectangle-36" fill="url(#linearGradient-5)" mask="url(#mask-2)" points="0 6.2 8.19047619 6.2 8.19047619 5.16666667 8.19047619 0 10.2380952 0 10.2380952 5.16666667 10.2380952 6.2 18.4285714 6.2 18.4285714 8.26666667 10.2380952 8.26666667 10.2380952 9.3 10.2380952 14.4666667 8.19047619 14.4666667 8.19047619 9.3 8.19047619 8.26666667 0 8.26666667"></polygon>
                <polygon id="Star-2" fill="#FFFFFF" mask="url(#mask-2)" points="9.21428571 25.3166667 7.4089453 26.2746193 7.75373464 24.245643 6.29318356 22.808714 8.31161551 22.5126903 9.21428571 20.6666667 10.1169559 22.5126903 12.1353879 22.808714 10.6748368 24.245643 11.0196261 26.2746193"></polygon>
                <polygon id="Star-2" fill="#FFFFFF" mask="url(#mask-2)" points="30.7142857 26.8666667 29.2664004 27.2946873 29.6904762 25.8333333 29.2664004 24.3719793 30.7142857 24.8 32.162171 24.3719793 31.7380952 25.8333333 32.162171 27.2946873"></polygon>
                <polygon id="Star-2" fill="#FFFFFF" mask="url(#mask-2)" points="30.7142857 7.23333333 29.2664004 7.66135401 29.6904762 6.2 29.2664004 4.73864599 30.7142857 5.16666667 32.162171 4.73864599 31.7380952 6.2 32.162171 7.66135401"></polygon>
                <polygon id="Star-2" fill="#FFFFFF" mask="url(#mask-2)" points="36.8571429 13.4333333 35.4092575 13.861354 35.8333333 12.4 35.4092575 10.938646 36.8571429 11.3666667 38.3050282 10.938646 37.8809524 12.4 38.3050282 13.861354"></polygon>
                <polygon id="Star-2" fill="#FFFFFF" mask="url(#mask-2)" points="24.5714286 15.5 23.1235433 15.9280207 23.547619 14.4666667 23.1235433 13.0053127 24.5714286 13.4333333 26.0193139 13.0053127 25.5952381 14.4666667 26.0193139 15.9280207"></polygon>
                <polygon id="Star-2" fill="#FFFFFF" mask="url(#mask-2)" points="33.7857143 18.0833333 33.0617716 18.2973437 33.2738095 17.5666667 33.0617716 16.8359897 33.7857143 17.05 34.5096569 16.8359897 34.297619 17.5666667 34.5096569 18.2973437"></polygon>
            </g>
        </g>
    </g>
</svg>