<?xml version="1.0" encoding="UTF-8" standalone="no"?>
<svg width="43px" height="31px" viewBox="0 0 43 31" version="1.1" xmlns="http://www.w3.org/2000/svg" xmlns:xlink="http://www.w3.org/1999/xlink">
    <!-- Generator: Sketch 43.2 (39069) - http://www.bohemiancoding.com/sketch -->
    <title>icon-can</title>
    <desc>Created with Sketch.</desc>
    <defs>
        <rect id="path-1" x="0" y="0" width="43" height="31" rx="3.08000001"></rect>
    </defs>
    <g id="IMAGES" stroke="none" stroke-width="1" fill="none" fill-rule="evenodd">
        <g id="icon-can">
            <g id="CA">
                <mask id="mask-2" fill="white">
                    <use xlink:href="#path-1"></use>
                </mask>
                <g id="Mask">
                    <use fill="#FFFFFF" fill-rule="evenodd" xlink:href="#path-1"></use>
                    <rect stroke="#F5F5F5" stroke-width="0.770000004" x="0.385000002" y="0.385000002" width="42.23" height="30.23" rx="3.08000001"></rect>
                </g>
                <rect id="Mask" fill="#FF3131" mask="url(#mask-2)" x="30.7142857" y="0" width="12.2857143" height="31"></rect>
                <rect id="Rectangle-2" fill="#FF3131" mask="url(#mask-2)" x="0" y="0" width="12.2857143" height="31"></rect>
                <path d="M23.9042871,15.1400141 C23.7073048,15.3388288 23.5916109,15.2779948 23.6457862,15.0045983 L24.5714286,10.3333333 L22.5238095,11.3666667 L21.5,8.26666667 L20.4761905,11.3666667 L18.4285714,10.3333333 L19.3542138,15.0045983 C19.40843,15.2782011 19.2917077,15.3378321 19.0957129,15.1400141 L17.7614299,13.7933192 C17.5644476,13.5945045 17.2447917,13.5947917 17.046683,13.7947432 L16.3809524,14.4666667 L14.3333333,13.4333333 L15.3571429,15.5 L14.6914122,16.1719235 C14.4936507,16.3715246 14.4984667,16.7000028 14.6977278,16.9011175 L17.4047619,19.6333333 L20.4761905,19.6333333 L20.9880952,22.7333333 L22.0119048,22.7333333 L22.5238095,19.6333333 L25.5952381,19.6333333 L28.3022722,16.9011175 C28.5035217,16.6979959 28.5066964,16.371875 28.3085878,16.1719235 L27.6428571,15.5 L28.6666667,13.4333333 L26.6190476,14.4666667 L25.953317,13.7947432 C25.7555555,13.595142 25.4345649,13.5955012 25.2385701,13.7933192 L23.9042871,15.1400141 Z" id="Rectangle-66" fill="#FF3131" mask="url(#mask-2)"></path>
            </g>
        </g>
    </g>
</svg>