<?xml version="1.0" encoding="UTF-8" standalone="no"?>
<svg width="15px" height="15px" viewBox="0 0 15 15" version="1.1" xmlns="http://www.w3.org/2000/svg" xmlns:xlink="http://www.w3.org/1999/xlink">
    <title>anytime</title>
    <g id="Page-1" stroke="none" stroke-width="1" fill="none" fill-rule="evenodd">
        <g id="icon-anytime" fill="#000000">
            <path d="M7.4387,7.7529 C7.5397,7.7529 7.6287,7.6639 7.6287,7.5629 C7.6287,7.4619 7.5397,7.3739 7.4387,7.3739 C7.3377,7.3739 7.2487,7.4619 7.2487,7.5629 C7.2487,7.6639 7.3377,7.7529 7.4387,7.7529 M7.4387,1.9999 C8.4127,1.9999 9.3727,2.2529 10.2207,2.7459 C11.0677,3.2389 11.7627,3.9349 12.2557,4.7819 C12.7487,5.6289 13.0017,6.5899 13.0017,7.5629 C13.0017,7.8419 12.7747,8.0689 12.4957,8.0689 C12.2177,8.0689 11.9907,7.8419 11.9907,7.5629 C11.9907,6.7669 11.7757,5.9829 11.3837,5.2869 C10.9787,4.5919 10.4097,4.0229 9.7147,3.6189 C9.1707,3.3019 8.5637,3.1129 7.9447,3.0369 L7.9447,7.0579 L10.5997,7.0579 C10.8777,7.0579 11.1057,7.2849 11.1057,7.5629 C11.1057,7.8419 10.8777,8.0689 10.5997,8.0689 L7.4387,8.0689 C7.1607,8.0689 6.9327,7.8419 6.9327,7.5629 L6.9327,2.5059 C6.9327,2.2279 7.1607,1.9999 7.4387,1.9999" id="Fill-1"></path>
            <path d="M4.7203,2.8598 C4.7833,2.8218 4.8463,2.8088 4.9103,2.8088 C5.0493,2.8088 5.1753,2.8848 5.2383,2.9988 C5.2893,3.0878 5.3023,3.1888 5.2763,3.2898 C5.2513,3.3908 5.1883,3.4668 5.0993,3.5168 C5.0363,3.5548 4.9733,3.5678 4.9103,3.5678 C4.7713,3.5678 4.6443,3.4918 4.5813,3.3778 C4.5303,3.2898 4.5183,3.1888 4.5433,3.0878 C4.5683,2.9858 4.6313,2.9108 4.7203,2.8598" id="Fill-4"></path>
            <path d="M3.064,5.4138 C3.001,5.4138 2.938,5.4008 2.874,5.3628 C2.697,5.2618 2.634,5.0218 2.735,4.8448 C2.798,4.7308 2.925,4.6548 3.064,4.6548 C3.127,4.6548 3.19,4.6678 3.254,4.7058 C3.431,4.8068 3.494,5.0468 3.393,5.2238 C3.317,5.3378 3.19,5.4138 3.064,5.4138" id="Fill-6"></path>
            <path d="M9.7778,11.6092 C9.8408,11.5712 9.9038,11.5582 9.9678,11.5582 C10.1068,11.5582 10.2328,11.6342 10.2958,11.7482 C10.3468,11.8372 10.3598,11.9382 10.3338,12.0392 C10.3088,12.1402 10.2458,12.2162 10.1568,12.2662 C10.0938,12.3042 10.0308,12.3172 9.9678,12.3172 C9.8288,12.3172 9.7018,12.2412 9.6388,12.1272 C9.5878,12.0392 9.5758,11.9382 9.6008,11.8372 C9.6258,11.7482 9.6888,11.6602 9.7778,11.6092" id="Fill-8"></path>
            <path d="M2.8743,9.7632 C2.9373,9.7252 3.0003,9.7122 3.0643,9.7122 C3.2033,9.7122 3.3293,9.7882 3.3923,9.9022 C3.4943,10.0792 3.4303,10.3192 3.2533,10.4202 C3.1903,10.4582 3.1273,10.4712 3.0643,10.4712 C2.9253,10.4712 2.7983,10.3952 2.7353,10.2812 C2.6213,10.1042 2.6843,9.8642 2.8743,9.7632" id="Fill-10"></path>
            <path d="M11.8134,9.7126 C11.8764,9.7126 11.9394,9.7256 12.0034,9.7636 C12.1804,9.8646 12.2434,10.1046 12.1424,10.2816 C12.0794,10.3956 11.9524,10.4716 11.8134,10.4716 C11.7504,10.4716 11.6874,10.4586 11.6234,10.4206 C11.4464,10.3196 11.3834,10.0796 11.4844,9.9026 C11.5604,9.7886 11.6874,9.7126 11.8134,9.7126" id="Fill-12"></path>
            <path d="M4.9099,11.5586 C4.9729,11.5586 5.0359,11.5716 5.0999,11.6096 C5.1879,11.6596 5.2509,11.7356 5.2769,11.8366 C5.3019,11.9376 5.2889,12.0386 5.2389,12.1276 C5.1759,12.2416 5.0489,12.3176 4.9099,12.3176 C4.8469,12.3176 4.7839,12.3046 4.7199,12.2666 C4.6319,12.2156 4.5689,12.1406 4.5429,12.0386 C4.5179,11.9376 4.5309,11.8366 4.5809,11.7486 C4.6439,11.6346 4.7709,11.5586 4.9099,11.5586" id="Fill-14"></path>
            <path d="M2.1958,7.2345 C2.2588,7.1965 2.3218,7.1835 2.3858,7.1835 C2.5248,7.1835 2.6508,7.2595 2.7138,7.3735 C2.8158,7.5505 2.7518,7.7905 2.5748,7.8915 C2.5118,7.9295 2.4488,7.9425 2.3858,7.9425 C2.2468,7.9425 2.1198,7.8665 2.0568,7.7525 C1.9428,7.5755 2.0058,7.3355 2.1958,7.2345" id="Fill-16"></path>
            <path d="M7.2532,12.2919 C7.3162,12.2539 7.3792,12.2409 7.4432,12.2409 C7.5822,12.2409 7.7082,12.3169 7.7712,12.4309 C7.8732,12.6079 7.8092,12.8479 7.6322,12.9489 C7.5692,12.9869 7.5062,12.9999 7.4432,12.9999 C7.3042,12.9999 7.1772,12.9239 7.1142,12.8099 C7.0002,12.6329 7.0632,12.3929 7.2532,12.2919" id="Fill-19"></path>
        </g>
    </g>
</svg>