<?xml version="1.0" encoding="UTF-8" standalone="no"?>
<svg width="15px" height="15px" viewBox="0 0 15 15" version="1.1" xmlns="http://www.w3.org/2000/svg" xmlns:xlink="http://www.w3.org/1999/xlink">
  <title>box-enter</title>
	<path d="M12.603,4.847L9.329,2.483c-0.166-0.12-0.396-0.082-0.516,0.083C8.694,2.732,8.731,2.963,8.896,3.082l3.268,2.359
		L7.606,8.966c-0.087,0.068-0.247,0.068-0.335,0L2.744,5.46c0.004-0.004,0.007-0.012,0.011-0.015l3.299-2.388
		c0.165-0.119,0.202-0.35,0.083-0.516c-0.12-0.165-0.35-0.203-0.516-0.083L2.313,4.855C2.002,5.097,1.776,5.55,1.776,5.934v4.111
		c0,0.384,0.225,0.837,0.538,1.08l4.529,3.495c0.177,0.138,0.399,0.207,0.621,0.207c0.222,0,0.443-0.069,0.619-0.206l4.521-3.489
		c0.342-0.236,0.546-0.736,0.546-1.087V5.934C13.15,5.579,12.941,5.072,12.603,4.847z M2.766,10.541
		c-0.131-0.102-0.251-0.339-0.251-0.496V6.217l4.303,3.332C6.901,9.614,6.995,9.66,7.094,9.694v4.187L2.766,10.541z M12.182,10.526
		l-4.349,3.355V9.669C7.911,9.636,7.99,9.602,8.058,9.549l4.353-3.366v3.861C12.411,10.201,12.291,10.453,12.182,10.526z
		 M7.094,5.968V0.543c0-0.204,0.165-0.369,0.369-0.369c0.204,0,0.369,0.165,0.369,0.369v5.391l1.315-1.095
		c0.157-0.131,0.389-0.109,0.52,0.047c0.131,0.157,0.109,0.39-0.047,0.52l-2.148,1.79L5.267,5.487
		C5.106,5.362,5.077,5.13,5.202,4.969C5.327,4.808,5.559,4.779,5.72,4.903L7.094,5.968z"/>
</svg>