<?xml version="1.0" encoding="UTF-8" standalone="no"?>
<svg width="15px" height="15px" viewBox="0 0 15 15" version="1.1" xmlns="http://www.w3.org/2000/svg" xmlns:xlink="http://www.w3.org/1999/xlink">
  <title>box-open</title>
	<path d="M14.4,4.1c0.1-0.2,0.2-0.4,0.2-0.6c0-0.2-0.1-0.4-0.3-0.5l-4.2-2.8C9.7,0.1,9.2,0.2,9,0.5l-1.5,2L6,0.5
		C5.7,0.2,5.3,0.1,4.9,0.4L0.7,3.1C0.5,3.2,0.4,3.4,0.4,3.6c0,0.2,0,0.4,0.2,0.6l2.1,2.5c0,0.1-0.1,0.2-0.1,0.3v3.6
		c0,0.3,0.2,0.7,0.5,0.9L7,14.6c0.2,0.1,0.3,0.2,0.5,0.2s0.4-0.1,0.5-0.2l3.9-3c0.3-0.2,0.5-0.6,0.5-1V7l0,0l0,0l0,0
		c0-0.1,0-0.2,0-0.3L14.4,4.1z M7.5,9.7L3.4,6.5l4.1-2.9l4.3,3l-3.9,3C7.7,9.8,7.6,9.8,7.5,9.7z M9.6,0.9c0,0,0.1,0,0.2,0L14,3.6v0.1
		l-2,2.4c0,0-4.1-2.9-4.1-3L9.6,0.9z M1.1,3.8C1.1,3.7,1,3.7,1.1,3.8c0-0.1,0-0.1,0-0.1l4.2-2.8c0,0,0.1,0,0.2,0l1.7,2.2L3,6l0,0
		L1.1,3.8z M3.4,11c-0.2-0.129-0.2-0.3-0.2-0.4V7.2l3.99,3.2L7.2,14L3.4,11z M11.8,10.6c0,0.1-0.098,0.303-0.2,0.4l-3.8,3v-3.6
		c0.1,0,0.3-0.1,0.4-0.2l3.6-2.8C11.8,7.4,11.8,10.6,11.8,10.6z"/>
</svg>