<?xml version="1.0" encoding="UTF-8" standalone="no"?>
<svg width="15px" height="15px" viewBox="0 0 15 15" version="1.1" xmlns="http://www.w3.org/2000/svg" xmlns:xlink="http://www.w3.org/1999/xlink">
    <title>box</title>
    <g id="Page-1" stroke="none" stroke-width="1" fill="none" fill-rule="evenodd">
        <g id="icon-box" fill="#000000">
            <path d="M12.2066581,9.84144845 C12.2076114,9.85765555 12.2066581,10.0264 12.0550741,10.1369896 L7.89271004,13.2439856 L7.89271004,9.31138102 L7.97088545,9.28087354 C8.07861498,9.23987912 8.17681092,9.18649103 8.26451992,9.12166264 L12.2066581,6.17864438 L12.2066581,9.84144845 Z M7.4989729,8.57729483 C7.39315008,8.57729483 7.29209406,8.545834 7.21582537,8.48863248 L2.94191838,5.29774095 C2.85516274,5.23291256 2.80654145,5.14139013 2.80844817,5.0451009 C2.81035488,4.94976503 2.86278961,4.85919596 2.95145197,4.798181 L7.21391865,1.87518327 C7.36836276,1.76936046 7.62862968,1.76936046 7.78307379,1.87518327 L12.0464938,4.798181 C12.1351562,4.85919596 12.1866376,4.94881168 12.1894976,5.0451009 C12.1914043,5.14139013 12.1427831,5.23291256 12.0560274,5.29774095 L7.78116707,8.48863248 C7.70489837,8.545834 7.60479571,8.57729483 7.4989729,8.57729483 L7.4989729,8.57729483 Z M7.09188874,13.234452 L2.94191838,10.1360363 C2.87804335,10.0893217 2.83609557,10.0283068 2.81798175,9.962525 L2.81607503,9.962525 L2.81416832,9.94345783 C2.81130824,9.93011081 2.81035488,9.91771715 2.80940152,9.90437012 L2.8008213,9.84144845 L2.8008213,6.18627125 L6.73342587,9.12166264 C6.8182748,9.18363096 6.91265731,9.23701904 7.01466669,9.27706011 L7.09188874,9.30756759 L7.09188874,13.234452 Z M12.9988992,5.0174535 C12.9884122,4.67233766 12.8072741,4.35486921 12.5021993,4.14608366 L8.2397326,1.22403929 C8.02618025,1.07722205 7.77068012,1 7.4989729,1 C7.22726567,1 6.97081219,1.07722205 6.7582132,1.22403929 L2.49479316,4.14608366 C2.21164563,4.33961548 2.03527427,4.64278354 2.0114403,4.97550572 C2.00286008,5.02222029 2,5.04891434 2,5.07656174 L2,9.86051562 C2,9.88720967 2.00286008,9.91390371 2.00858023,9.94345783 C2.03146084,10.2819002 2.1916251,10.5688611 2.45856553,10.7700198 L6.73342587,13.9609113 C7.164344,14.2802865 7.83455516,14.2802865 8.26451992,13.959958 L12.5393803,10.7700198 C12.966485,10.4554114 12.9988992,10.0454672 12.9988992,9.92725073 C12.9998525,8.25982639 13.0008059,5.08704869 12.9988992,5.0174535 L12.9988992,5.0174535 Z" id="Fill-1"></path>
        </g>
    </g>
</svg>