<?xml version="1.0" encoding="UTF-8" standalone="no"?>
<svg width="15px" height="15px" viewBox="0 0 15 15" version="1.1" xmlns="http://www.w3.org/2000/svg" xmlns:xlink="http://www.w3.org/1999/xlink">
  <title>crest-minimal</title>
  <path class="a" d="M9.26,5.94a5.1,5.1,0,0,1,1.021-.554l.245.312.045.02.175-.091.12.048.478.636s.168.112.346-.134a.4.4,0,0,0,.1-.252L9.721,3.232a.226.226,0,0,0-.313.168l-.037.309.429.574-.045.159-.062.016-.013.1.153.2a7.354,7.354,0,0,0-.82.611l-.907.768-.644.61-.568-.538-.907-.768a7.354,7.354,0,0,0-.82-.611l.152-.2-.012-.1-.062-.016L5.2,4.355l.429-.574-.036-.309A.227.227,0,0,0,5.279,3.3L3.214,6a.394.394,0,0,0,.1.252c.177.246.346.135.346.135l.478-.636.12-.049.175.091.045-.02.245-.312a5.071,5.071,0,0,1,1.021.555.777.777,0,0,1,.317.356,1.221,1.221,0,0,0,.353.517l.456.427L3.579,10.428s-.407.274-.229.527c0,0,.246.369.777-.01L5.373,9.827,7.461,7.871,9.627,9.9l1.246,1.116c.53.38.776.011.776.011.179-.253-.229-.527-.229-.527L8.058,7.312l.532-.5a1.629,1.629,0,0,0,.6-.63s-.171-.1.071-.244"/><path class="a" d="M7.5,14.084A6.584,6.584,0,1,1,14.084,7.5,6.592,6.592,0,0,1,7.5,14.084ZM7.5,0A7.5,7.5,0,1,0,15,7.5,7.509,7.509,0,0,0,7.5,0Z"/>
</svg>