<?xml version="1.0" encoding="UTF-8" standalone="no"?>
<svg width="15px" height="15px" viewBox="0 0 15 15" version="1.1" xmlns="http://www.w3.org/2000/svg" xmlns:xlink="http://www.w3.org/1999/xlink">
    <title>delivery</title>
    <g id="Page-1" stroke="none" stroke-width="1" fill="none" fill-rule="evenodd">
        <g id="icon-delivery" fill="#000000">
            <path d="M12.8698,7.7012 L12.8698,6.6072 L14.2458,6.6072 C14.3298,6.8082 14.3788,7.0312 14.3788,7.2632 L14.3788,7.7012 L12.8698,7.7012 Z M12.6478,4.9432 L10.9398,4.9432 L10.9398,3.0002 L-0.0002,3.0002 L-0.0002,10.8572 L1.8508,10.8572 C1.9128,10.6642 1.9748,10.4322 2.0858,10.2442 L0.6208,10.2442 L0.6208,3.6132 L10.3178,3.6132 L10.3178,10.2442 L5.3258,10.2442 C5.4678,10.4192 5.5738,10.6342 5.6448,10.8572 L10.3228,10.8572 L10.6418,10.8572 L10.9438,10.8572 L10.9438,10.1222 L10.9438,10.1172 L10.9438,5.5562 L12.6478,5.5562 C13.0918,5.5562 13.4958,5.7222 13.8018,5.9942 L12.2488,5.9942 L12.2488,8.3142 L14.3788,8.3142 L14.3788,10.2442 L14.1168,10.2442 C14.1258,10.2622 14.1388,10.2752 14.1478,10.2922 C14.2678,10.4722 14.3788,10.6602 14.4628,10.8572 L14.9998,10.8572 L14.9998,7.2632 C14.9998,5.9852 13.9438,4.9432 12.6478,4.9432 Z" id="Fill-1"></path>
            <path d="M3.75,12.4118 C3.265,12.4118 2.868,12.0338 2.868,11.5718 C2.868,11.1088 3.265,10.7308 3.75,10.7308 C4.235,10.7308 4.632,11.1088 4.632,11.5718 C4.632,12.0338 4.235,12.4118 3.75,12.4118 M3.75,10.1428 C2.925,10.1428 2.25,10.7858 2.25,11.5718 C2.25,12.3568 2.925,12.9998 3.75,12.9998 C4.575,12.9998 5.25,12.3568 5.25,11.5718 C5.25,10.7858 4.575,10.1428 3.75,10.1428" id="Fill-4"></path>
            <path d="M12.75,12.4118 C12.265,12.4118 11.868,12.0338 11.868,11.5718 C11.868,11.1088 12.265,10.7308 12.75,10.7308 C13.235,10.7308 13.632,11.1088 13.632,11.5718 C13.632,12.0338 13.235,12.4118 12.75,12.4118 M12.75,10.1428 C11.925,10.1428 11.25,10.7858 11.25,11.5718 C11.25,12.3568 11.925,12.9998 12.75,12.9998 C13.575,12.9998 14.25,12.3568 14.25,11.5718 C14.25,10.7858 13.575,10.1428 12.75,10.1428" id="Fill-6"></path>
        </g>
    </g>
</svg>