<?xml version="1.0" encoding="utf-8"?>
<svg width="15px" height="15px" version="1.1" id="Layer_1" xmlns="http://www.w3.org/2000/svg" xmlns:xlink="http://www.w3.org/1999/xlink" x="0px" y="0px"
	 viewBox="0 0 15 15" xml:space="preserve">
	 <title>discount</title>
<path id="Shape" d="M13.01,0.141c-0.174-0.166-0.451-0.166-0.607,0L11.83,0.674l-0.555-0.532c-0.174-0.166-0.451-0.166-0.607,0
	l-0.573,0.532L9.539,0.141c-0.156-0.15-0.451-0.15-0.607,0L8.359,0.674L7.804,0.141c-0.174-0.166-0.451-0.166-0.607,0L6.624,0.674
	L6.068,0.141C5.982,0.058,5.878,0.008,5.756,0.008c-0.121,0-0.226,0.05-0.312,0.116L4.888,0.674L4.333,0.141
	c-0.174-0.166-0.451-0.166-0.607,0L3.153,0.674L2.598,0.141c-0.174-0.166-0.451-0.166-0.607,0L1.123,0.973
	C1.036,1.056,1.001,1.156,1.001,1.272v12.472c0,0.116,0.052,0.216,0.121,0.299l0.873,0.826c0.174,0.166,0.451,0.166,0.607,0
	l0.555-0.565l0.55,0.567c0.174,0.166,0.451,0.166,0.607,0l0.573-0.562l0.555,0.573c0.156,0.15,0.451,0.15,0.607,0l0.573-0.573
	l0.57,0.558c0.174,0.166,0.451,0.166,0.607,0l0.558-0.558l0.555,0.574C9.001,14.967,9.105,15,9.227,15
	c0.121,0,0.226-0.05,0.312-0.116l0.555-0.574l0.555,0.565c0.174,0.166,0.451,0.166,0.607,0l0.573-0.565l0.555,0.574
	C12.472,14.967,12.576,15,12.697,15c0.121,0,0.226-0.033,0.312-0.116l0.868-0.873c0.087-0.083,0.121-0.183,0.121-0.299V1.239
	c0-0.116-0.052-0.216-0.121-0.299L13.01,0.141z M13.131,13.562l-0.434,0.416l-0.555-0.532c-0.087-0.1-0.208-0.133-0.312-0.133
	c-0.104,0-0.226,0.033-0.312,0.116l-0.555,0.549l-0.555-0.532c-0.174-0.166-0.451-0.166-0.607,0l-0.573,0.532l-0.555-0.532
	c-0.087-0.083-0.191-0.133-0.312-0.133c-0.121,0-0.226,0.05-0.312,0.116l-0.555,0.549l-0.555-0.532c-0.156-0.15-0.451-0.15-0.607,0
	l-0.573,0.532l-0.555-0.532c-0.174-0.166-0.451-0.166-0.607,0l-0.573,0.532l-0.555-0.532c-0.174-0.166-0.451-0.166-0.607,0
	l-0.573,0.532l-0.434-0.416V1.422l0.434-0.416l0.555,0.532c0.174,0.166,0.451,0.166,0.607,0l0.573-0.532l0.555,0.532
	c0.174,0.166,0.451,0.166,0.607,0l0.573-0.532l0.555,0.532c0.087,0.083,0.191,0.116,0.312,0.116c0.121,0,0.226-0.05,0.312-0.116
	l0.555-0.532l0.555,0.532c0.156,0.15,0.451,0.15,0.607,0l0.573-0.532l0.555,0.532c0.174,0.166,0.451,0.166,0.607,0l0.573-0.532
	l0.555,0.532c0.174,0.166,0.451,0.166,0.607,0l0.573-0.532l0.434,0.416V13.562z"/>
<path id="Shape_1_" d="M10.069,4.353L4.313,10.06c-0.164,0.163-0.164,0.424,0,0.571c0.082,0.082,0.181,0.114,0.296,0.114
	c0.115,0,0.214-0.033,0.296-0.114l5.757-5.707c0.164-0.163,0.164-0.424,0-0.571C10.497,4.207,10.234,4.207,10.069,4.353z"/>
<path id="Shape_2_" d="M5.645,7.092c0.789,0,1.447-0.636,1.447-1.435S6.435,4.239,5.645,4.239S4.198,4.875,4.198,5.674
	S4.839,7.092,5.645,7.092z M5.645,5.054c0.345,0,0.625,0.277,0.625,0.62s-0.28,0.62-0.625,0.62C5.3,6.293,5.02,6,5.02,5.674
	S5.3,5.054,5.645,5.054z"/>
<path id="Shape_3_" d="M9.346,7.908c-0.789,0-1.447,0.636-1.447,1.435c0,0.799,0.641,1.435,1.447,1.435
	c0.806,0,1.447-0.636,1.447-1.435C10.793,8.543,10.135,7.908,9.346,7.908z M9.346,9.946c-0.345,0-0.625-0.277-0.625-0.62
	S9,8.707,9.346,8.707c0.345,0,0.625,0.277,0.625,0.62S9.675,9.946,9.346,9.946z"/>
</svg>
