<?xml version="1.0" encoding="UTF-8"?>
<svg width="15px" height="15px" viewBox="0 0 15 15" version="1.1" xmlns="http://www.w3.org/2000/svg" xmlns:xlink="http://www.w3.org/1999/xlink">
    <title>gift-box</title>
    <g id="Page-1" stroke="none" stroke-width="1" fill="none" fill-rule="evenodd">
        <g id="icon-gift-box-copy" fill="#000000">
            <path d="M8.61960086,1.99522052 C8.35911878,2.24420812 8.06522347,3.25426544 7.88168596,4.11079218 C8.74219451,3.92034841 9.75776873,3.62222162 10.008368,3.37182333 C10.3897966,2.99070067 10.3897966,2.3707004 10.008368,1.98957774 C9.81988911,1.8010149 9.57399591,1.70696859 9.32551436,1.70696859 C9.07444446,1.70696859 8.82055091,1.80313094 8.61960086,1.99522052 Z M7,5 L7.08659206,4.50131946 C7.1567128,4.09762569 7.53649426,2.05423458 8.13157933,1.48548954 C8.81113873,0.835864683 9.85494948,0.838686072 10.5074489,1.4908972 C11.1641837,2.14687019 11.1641837,3.21453088 10.5074489,3.87050386 C9.94083563,4.43666263 7.90121623,4.83471362 7.49790432,4.90853997 L7,5 Z" id="Fill-48"></path>
            <path d="M4.99163198,1.98951118 C4.80785917,2.17314065 4.70667824,2.41860694 4.70667824,2.68076681 C4.70667824,2.94269157 4.80785917,3.18815785 4.99163198,3.37178733 C5.24223127,3.62219115 6.25780549,3.92032453 7.11831404,4.11077251 C6.93454123,3.25399172 6.64064591,2.24367694 6.38039914,1.99515408 C6.17944909,1.80306025 5.92555554,1.70689578 5.67448564,1.70689578 C5.42576878,1.70689578 5.18011089,1.80094417 4.99163198,1.98951118 Z M8,5 L7.50209568,4.90853795 C7.09878377,4.83470996 5.05916437,4.43665017 4.49255114,3.87047889 C3.83581629,3.2144914 3.83581629,2.1468071 4.49255114,1.49081961 C5.14552113,0.838594061 6.18933188,0.836007731 6.86842067,1.48541183 C7.46350574,2.05416944 7.8432872,4.09760574 7.91340794,4.50130844 L8,5 Z" id="Fill-49"></path>
            <rect id="Rectangle" x="1" y="4" width="13" height="1"></rect>
            <rect id="Rectangle-Copy" x="1" y="7" width="13" height="1"></rect>
            <rect id="Rectangle-6" x="7" y="4" width="1" height="9"></rect>
            <rect id="Rectangle-2" x="1" y="5" width="1" height="2"></rect>
            <rect id="Rectangle-2-Copy" x="13" y="5" width="1" height="2"></rect>
            <rect id="Rectangle-3" x="2" y="8" width="1" height="6"></rect>
            <rect id="Rectangle-4" x="3" y="13" width="10" height="1"></rect>
            <rect id="Rectangle-5" x="12" y="8" width="1" height="5"></rect>
        </g>
    </g>
</svg>