<?xml version="1.0" encoding="UTF-8" standalone="no"?>
<svg width="15px" height="15px" viewBox="0 0 15 15" version="1.1" xmlns="http://www.w3.org/2000/svg" xmlns:xlink="http://www.w3.org/1999/xlink">
    <title>plus</title>
    <g id="Page-1" stroke="none" stroke-width="1" fill="none" fill-rule="evenodd">
        <g id="icon-plus" fill="#000000">
            <path d="M12.4798599,6.97985989 L8.02014011,6.97985989 L8.02014011,2.52014011 C8.02014011,2.23292469 7.78721541,2 7.5,2 C7.21278459,2 6.97985989,2.23292469 6.97985989,2.52014011 L6.97985989,6.97985989 L2.52014011,6.97985989 C2.23292469,6.97985989 2,7.21278459 2,7.5 C2,7.78721541 2.23292469,8.02014011 2.52014011,8.02014011 L6.97985989,8.02014011 L6.97985989,12.4798599 C6.97985989,12.7670753 7.21278459,13 7.5,13 C7.78721541,13 8.02014011,12.7670753 8.02014011,12.4798599 L8.02014011,8.02014011 L12.4798599,8.02014011 C12.7670753,8.02014011 13,7.78721541 13,7.5 C13,7.21278459 12.7670753,6.97985989 12.4798599,6.97985989" id="Fill-1"></path>
        </g>
    </g>
</svg>