<?xml version="1.0" encoding="utf-8"?>
<svg width="15px" height="15px" version="1.1" id="Layer_1" xmlns="http://www.w3.org/2000/svg" xmlns:xlink="http://www.w3.org/1999/xlink" x="0px" y="0px"
	 viewBox="0 0 15 15" xml:space="preserve">
  <title>repeat-once</title>
  <path d="M12.891,10.756a.6.6,0,0,0-.453.211l0,0-.462.635a5.8,5.8,0,1,1-6.1-9.233l.037.062.665,1.118a.3.3,0,0,0,.55-.067l.651-2.432A.3.3,0,0,0,7.557.687L5.062.018a.292.292,0,0,0-.335.429l.5.844A7.021,7.021,0,1,0,13.193,12l.221-.312-.013-.014a.6.6,0,0,0,.1-.313.608.608,0,0,0-.609-.608"/>
  <path d="M13.989,6.054h-.8V2.041a.573.573,0,0,0-.868-.492l-1.835,1.1a.573.573,0,0,0,.591.983l.966-.581v3H10.778a.574.574,0,0,0,0,1.147h3.211a.574.574,0,0,0,0-1.147"/>
</svg>