<?xml version="1.0" encoding="utf-8"?>
<svg width="15px" height="15px" version="1.1" id="Layer_1" xmlns="http://www.w3.org/2000/svg" xmlns:xlink="http://www.w3.org/1999/xlink" x="0px" y="0px"
	 viewBox="0 0 15 15" xml:space="preserve">
	 <title>repeat</title>
<path id="Combined-Shape" d="M13.651,3.228l0.814-0.812C14.663,2.22,15,2.359,15,2.637v2.679c0,0.172-0.14,0.312-0.313,0.312h-2.689
	c-0.279,0-0.419-0.336-0.221-0.533l0.973-0.969C11.607,2.363,9.623,1.26,7.484,1.26c-3.261,0-5.941,2.439-6.234,5.672
	C1.221,7.256,0.948,7.5,0.627,7.5c-0.019,0-0.038-0.001-0.057-0.002C0.226,7.467-0.029,7.163,0.003,6.82
	C0.354,2.939,3.57,0.012,7.484,0.012C9.959,0.012,12.26,1.243,13.651,3.228z"/>
<path id="Combined-Shape_1_" d="M15,8.93c-0.767,3.518-3.792,6.059-7.405,6.059c-2.494,0-4.826-1.282-6.232-3.345L0.54,12.487
	C0.341,12.691,0,12.547,0,12.257V9.471c0-0.179,0.142-0.325,0.316-0.325h2.717c0.282,0,0.423,0.35,0.224,0.554l-0.98,1.005
	c1.155,1.833,3.162,2.984,5.318,2.984c2.911,0,5.364-1.98,6.101-4.76H15z"/>
</svg>