<?xml version="1.0" encoding="UTF-8" standalone="no"?>
<svg width="15px" height="15px" viewBox="0 0 15 15" version="1.1" xmlns="http://www.w3.org/2000/svg" xmlns:xlink="http://www.w3.org/1999/xlink">
    <title>smile</title>
    <g id="Page-1" stroke="none" stroke-width="1" fill="none" fill-rule="evenodd">
        <g id="icon-smile" fill="#000000">
            <path d="M5.7583,5.3611 C5.4413,5.3611 5.1773,5.6251 5.1773,5.9421 C5.1773,6.2591 5.4413,6.5221 5.7583,6.5221 C6.0753,6.5221 6.3393,6.2591 6.3393,5.9421 C6.3393,5.6251 6.0753,5.3611 5.7583,5.3611" id="Fill-1"></path>
            <path d="M9.2417,5.3611 C8.9247,5.3611 8.6607,5.6251 8.6607,5.9421 C8.6607,6.2591 8.9247,6.5221 9.2417,6.5221 C9.5587,6.5221 9.8227,6.2591 9.8227,5.9421 C9.8227,5.6251 9.5587,5.3611 9.2417,5.3611" id="Fill-3"></path>
            <path d="M7.5,2.6722 C10.173,2.6722 12.328,4.8272 12.328,7.5002 C12.328,10.1722 10.173,12.3282 7.5,12.3282 C4.827,12.3282 2.672,10.1722 2.672,7.5002 C2.672,4.8272 4.827,2.6722 7.5,2.6722 M7.5,2.0002 C4.466,2.0002 2,4.4662 2,7.5002 C2,10.5342 4.466,13.0002 7.5,13.0002 C10.534,13.0002 13,10.5342 13,7.5002 C13,4.4662 10.534,2.0002 7.5,2.0002" id="Fill-5"></path>
            <path d="M10.1316,9.2569 C10.3186,8.9719 10.1166,8.7009 9.8606,8.7109 C9.7436,8.7149 9.6416,8.7939 9.5776,8.8899 C9.1106,9.5919 8.3046,9.9439 7.4996,9.9439 C6.6956,9.9439 5.8896,9.5919 5.4226,8.8899 C5.3586,8.7939 5.2566,8.7149 5.1396,8.7109 C4.8836,8.7009 4.6816,8.9719 4.8686,9.2569 C5.4666,10.1679 6.4866,10.6169 7.4996,10.6169 C8.5136,10.6169 9.5336,10.1679 10.1316,9.2569" id="Fill-8"></path>
        </g>
    </g>
</svg>