<svg width="50" height="50" viewBox="0 0 50 50" xmlns="http://www.w3.org/2000/svg" xmlns:xlink="http://www.w3.org/1999/xlink"><title>icon_card</title><defs><path d="M47 44H3c-1.626 0-3-1.549-3-3V9c0-1.451 1.374-3 3-3h44c1.731 0 3 1.549 3 3v32c0 1.451-1.374 3-3 3z" id="credit-card"/><mask id="f" x="0" y="0" width="50" height="38" fill="#fff"><use xlink:href="#credit-card"/></mask></defs><g fill="none" fill-rule="evenodd"><use stroke="#554740" mask="url(#f)" stroke-width="6" xlink:href="#credit-card"/><path d="M48 19H1c-.586 0-1-.412-1-1v-5c0-.588.414-1 1-1h47c.586 0 1 .412 1 1v5c0 .485-.414 1-1 1M20 26H8c-.513 0-1-.4-1-1s.487-1 1-1h12c.513 0 1 .4 1 1s-.609 1-1 1M25 31H8c-.519 0-1-.4-1-1s.481-1 1-1h17c.519 0 1 .4 1 1s-.481 1-1 1M33 37H8c-.495 0-1-.4-1-1s.505-1 1-1h25c.495 0 1 .4 1 1s-.505 1-1 1" fill="#554740"/></g></svg>
